<svg width="128" height="128" viewBox="0 0 128 128" fill="none" xmlns="http://www.w3.org/2000/svg">
<path d="M127.736 22.6739C127.672 21.6528 127.266 20.6828 126.585 19.9193C125.904 19.1557 124.986 18.6428 123.979 18.4626C99.264 14.0284 88.9465 10.8227 65.8829 0.405751C65.2912 0.13832 64.6493 0 64 0C63.3507 0 62.7088 0.13832 62.1171 0.405751C39.0535 10.8227 28.736 14.0284 4.02088 18.4626C3.01361 18.6428 2.09593 19.1557 1.41473 19.9193C0.733531 20.6828 0.328197 21.6528 0.263612 22.6739C-0.836424 40.1336 1.50937 56.4019 7.24384 71.0274C11.9398 82.9572 18.8894 93.871 27.7131 103.173C42.9907 119.381 59.2113 126.421 62.3057 127.666C63.4053 128.111 64.6347 128.111 65.7343 127.666C68.8287 126.421 85.0493 119.381 100.327 103.173C109.136 93.8675 116.072 82.954 120.756 71.0274C126.491 56.4019 128.836 40.1336 127.736 22.6739ZM90.3066 44.1336L58.6484 80.7044C58.2413 81.1759 57.7422 81.5594 57.1815 81.8311C56.6209 82.1028 56.0107 82.257 55.3883 82.2843H55.1997C54.0032 82.2846 52.8543 81.8158 51.9996 80.9786L37.942 67.2075C37.5131 66.7872 37.1712 66.2867 36.9358 65.7343C36.7004 65.182 36.5761 64.5886 36.57 63.9883C36.5577 62.7757 37.0276 61.608 37.8763 60.7419C38.725 59.8757 39.883 59.3822 41.0956 59.3699C42.3082 59.3576 43.4761 59.8275 44.3422 60.6761L54.914 71.0445L83.4006 38.1508C83.7935 37.6968 84.2719 37.3247 84.8086 37.0556C85.3453 36.7864 85.9298 36.6257 86.5286 36.5824C87.1274 36.5392 87.7289 36.6143 88.2987 36.8035C88.8685 36.9927 89.3954 37.2923 89.8494 37.6851C90.3034 38.0779 90.6756 38.5563 90.9447 39.093C91.2139 39.6297 91.3746 40.2141 91.4179 40.8129C91.4611 41.4117 91.386 42.0131 91.1968 42.5829C91.0076 43.1527 90.708 43.6796 90.3152 44.1336H90.3066Z" fill="#2F9B69"/>
</svg>
